<?xml version="1.0" encoding="UTF-8"?>
<svg width="103px" height="103px" viewBox="0 0 103 103" version="1.1" xmlns="http://www.w3.org/2000/svg" xmlns:xlink="http://www.w3.org/1999/xlink">
    <!-- Generator: Sketch 52.4 (67378) - http://www.bohemiancoding.com/sketch -->
    <title>Vertical_Signature_Blue</title>
    <desc>Created with Sketch.</desc>
    <defs>
        <polygon id="path-1" points="0.00309774436 0.19206015 102.686353 0.19206015 102.686353 27.8332331 0.00309774436 27.8332331"></polygon>
    </defs>
    <g id="Page-1" stroke="none" stroke-width="1" fill="none" fill-rule="evenodd">
        <g id="Final-Design" transform="translate(-65.000000, -66.000000)">
            <g id="Vertical_Signature_Blue" transform="translate(65.000000, 66.000000)">
                <g id="Group-4" transform="translate(0.000000, 74.345865)">
                    <mask id="mask-2" fill="white">
                        <use xlink:href="#path-1"></use>
                    </mask>
                    <g id="Clip-2"></g>
                    <path d="M89.3892857,3.914 C89.6572406,3.914 89.9050602,3.91554887 90.1319699,3.91864662 L89.3118421,8.15868421 C89.0957744,9.31878947 88.9215263,10.0808346 88.7890977,10.4432707 C88.7209474,10.6252632 88.640406,10.7499474 88.5482481,10.8204211 C88.4560902,10.8901203 88.3538647,10.9241955 88.2438947,10.9241955 C88.1308271,10.9241955 88.0278271,10.8854737 87.9356692,10.8064812 C87.8419624,10.7282632 87.7552256,10.5981579 87.6762331,10.4169398 L87.495015,10.451015 C87.4531955,10.6546917 87.4067293,10.8436541 87.356391,11.0155789 C87.3045038,11.1875038 87.2262857,11.4136391 87.1194135,11.6947594 C87.2750752,11.7582632 87.4183459,11.790015 87.5515489,11.790015 C87.7288947,11.790015 87.9147594,11.7389023 88.1068195,11.6366767 C88.4739023,11.4430677 88.8355639,11.1410376 89.1941278,10.7267143 C89.5511429,10.3116165 89.8361353,9.83456391 90.0498797,9.29168421 C90.2636241,8.74957895 90.5222857,7.86749624 90.8243158,6.64621053 L91.4523835,3.91864662 C91.5778421,3.91554887 91.7675789,3.914 92.021594,3.914 C92.4266241,3.914 92.7185865,3.91554887 92.8967068,3.91864662 C92.9346541,3.73200752 92.9935113,3.53684962 93.0740526,3.33317293 L93.0159699,3.24101504 C92.8951579,3.26347368 92.7108421,3.28283459 92.4645714,3.29754887 C92.0579925,3.32465414 91.8039774,3.33627068 91.7017519,3.33162406 L91.5716466,3.33162406 C91.657609,2.82978947 91.7699023,2.32718045 91.906203,1.82457143 C91.9588647,1.63638346 92.0123008,1.49698496 92.0626391,1.4056015 C92.1137519,1.31576692 92.1826767,1.24374436 92.2709624,1.19108271 C92.3569248,1.13842105 92.4475338,1.11131579 92.5427895,1.11131579 C92.6636015,1.11131579 92.7999023,1.1608797 92.9516917,1.25923308 C93.1027068,1.35758647 93.2583684,1.52718797 93.4171278,1.76416541 L93.5882782,1.73086466 C93.651782,1.27549624 93.7571053,0.793022556 93.9088947,0.282669173 C93.7501353,0.222263158 93.5936992,0.19206015 93.4426842,0.19206015 C93.2119023,0.19206015 93.0330075,0.219165414 92.906,0.274150376 C92.7805414,0.329135338 92.5149098,0.50106015 92.1114286,0.793022556 C91.7087218,1.08343609 91.3424135,1.38236842 91.0132782,1.68904511 C90.8010827,1.88807519 90.6438722,2.08323308 90.5424211,2.27296992 C90.4781429,2.39300752 90.4099925,2.61604511 90.3379699,2.94053383 C90.3077669,3.08457895 90.282985,3.1844812 90.2651729,3.24101504 C90.1064135,3.31381203 89.9019624,3.38506015 89.6541429,3.45553383 C89.404,3.52678195 89.2196842,3.58409023 89.0988722,3.62978195 L89.0477594,3.91864662 C89.1383684,3.91554887 89.2522105,3.914 89.3892857,3.914 Z M84.1788797,5.2444812 C84.3477068,4.61331579 84.5397669,4.18505263 84.7558346,3.95969173 C84.9726767,3.73510526 85.2313383,3.62203759 85.5341429,3.62203759 C85.829203,3.62203759 86.0692782,3.72658647 86.2528195,3.93181203 C86.4363609,4.13781203 86.5269699,4.47159398 86.5269699,4.93315789 C86.5269699,5.47758647 86.4487519,6.04834586 86.2899925,6.64621053 C86.1792481,7.05511278 86.0592105,7.37572932 85.9291053,7.60806015 C85.7982256,7.84039098 85.6549549,8.00921805 85.4969699,8.11299248 C85.3397594,8.21676692 85.1531203,8.26865414 84.9378271,8.26865414 C84.6156617,8.26865414 84.3655188,8.16875188 84.1904962,7.96817293 C84.0146992,7.76759398 83.9264135,7.4353609 83.9264135,6.96992481 C83.9264135,6.45182707 84.0100526,5.87642105 84.1788797,5.2444812 Z M82.7430752,7.93254887 C82.8445263,8.21134586 83.0272932,8.42818797 83.2906015,8.58694737 C83.5539098,8.7464812 83.9093759,8.82547368 84.3600977,8.82547368 C84.7426692,8.82547368 85.0849699,8.76816541 85.3900977,8.65277444 C85.6944511,8.53738346 86.0111955,8.37010526 86.3426541,8.14784211 C86.6741128,7.92635338 86.9172857,7.72577444 87.0721729,7.54378195 C87.2874662,7.28202256 87.4779774,6.90564662 87.6421579,6.41233083 C87.8071128,5.91978947 87.889203,5.42415038 87.889203,4.92928571 C87.889203,4.66830075 87.8566767,4.42822556 87.7923985,4.20906015 C87.7281203,3.9891203 87.628218,3.80170677 87.4926917,3.64449624 C87.356391,3.48728571 87.1534887,3.35950376 86.883985,3.26192481 C86.6168045,3.16357143 86.3194211,3.11323308 85.9941579,3.11323308 C85.6046165,3.11323308 85.2367594,3.18912782 84.8905865,3.33781955 C84.5444135,3.48728571 84.2268947,3.67624812 83.9380301,3.9054812 C83.6476165,4.13393985 83.4462632,4.31825564 83.3324211,4.45842857 C83.151203,4.68146617 82.9816015,5.047 82.824391,5.55270677 C82.6679549,6.05996241 82.5889624,6.54708271 82.5889624,7.01639098 C82.5889624,7.34862406 82.6400752,7.65452632 82.7430752,7.93254887 Z" id="Fill-1" fill="#FFFFFF" mask="url(#mask-2)"></path>
                    <path d="M92.730203,15.0604586 L95.2409248,21.127391 C94.5276692,21.1521729 93.7214812,21.1637895 92.820812,21.1637895 C91.888391,21.1637895 91.0543233,21.1521729 90.318609,21.127391 L92.730203,15.0604586 Z M87.8365414,27.3840602 L90.5385489,27.4692481 L90.5385489,26.501203 C89.6084511,26.4694511 89.0500827,26.3989774 88.8634436,26.289782 C88.7387594,26.2123383 88.6768045,26.0806842 88.6768045,25.8932707 C88.6768045,25.6284135 88.8719624,24.9593008 89.2607293,23.8843835 L89.773406,22.4826541 L95.8248496,22.4826541 L96.8285188,25.0522331 C97.008188,25.495985 97.0980226,25.8150526 97.0980226,26.0102105 C97.0980226,26.1658722 97.038391,26.277391 96.9175789,26.3424436 C96.795218,26.4090451 96.262406,26.4617068 95.3168195,26.501203 L95.3168195,27.4692481 L99.4298496,27.3840602 L102.686353,27.4692481 L102.686353,26.501203 C102.459444,26.4764211 102.287519,26.4578346 102.170579,26.4423459 C101.803496,26.4175639 101.575038,26.3912331 101.485203,26.3594812 C101.396143,26.3285038 101.314827,26.2820376 101.245128,26.2193083 C101.175429,26.1558045 101.101083,26.0551278 101.02209,25.9141805 L100.553556,24.835391 L99.8271353,23.2292105 L94.5911729,10.9876992 L92.9207143,10.9876992 L91.8891654,13.6494361 L88.8316917,21.200188 C88.253188,22.6321203 87.8628722,23.5885489 87.6599699,24.0733459 C87.2146692,25.1048947 86.9467143,25.7012105 86.8568797,25.8615188 C86.7670451,26.0218271 86.6787594,26.1387669 86.5935714,26.2138872 C86.507609,26.2874586 86.4038346,26.3424436 86.2830226,26.3772932 C86.162985,26.4113684 85.7850602,26.453188 85.1523459,26.501203 L85.1523459,27.4692481 L87.8365414,27.3840602 Z M74.5371504,21.4170301 L74.5371504,18.7250902 C74.5371504,15.6590977 74.5781955,13.571218 74.6579624,12.4645489 C75.3859323,12.3592256 76.0488496,12.3073383 76.6505865,12.3073383 C78.2528947,12.3073383 79.4486241,12.4467368 80.2377744,12.729406 C81.0269248,13.0097519 81.6797744,13.4635714 82.1955489,14.0885414 C82.7113233,14.7135113 83.0822782,15.4422556 83.3084135,16.2747744 C83.5353233,17.1072932 83.6491654,17.9684662 83.6491654,18.8598421 C83.6491654,19.836406 83.5353233,20.7471429 83.3084135,21.5912782 C83.0822782,22.4354135 82.763985,23.1618346 82.3543083,23.7705414 C81.9430827,24.3800226 81.5163684,24.8423609 81.0702932,25.1544586 C80.6234436,25.4681053 80.1053459,25.7050827 79.5105789,25.8700376 C78.7059398,26.0884286 77.782812,26.1976241 76.7442932,26.1976241 C76.0798271,26.1976241 75.3859323,26.137218 74.6579624,26.0171805 C74.5781955,25.2760451 74.5371504,23.7418872 74.5371504,21.4170301 Z M73.5234135,27.3840602 L77.0045038,27.4692481 C78.5820301,27.4692481 79.928,27.2942256 81.0455113,26.9465038 C82.1622481,26.5995564 83.1984436,26.028797 84.1556466,25.2404211 C85.1120752,24.4504962 85.8640526,23.4700602 86.4108045,22.296015 C86.956782,21.1219699 87.2309323,19.7899398 87.2309323,18.2960526 C87.2309323,17.122782 87.0466165,16.0447669 86.6803083,15.0581353 C86.4611429,14.4726617 86.1389774,13.9251353 85.713812,13.4171053 C85.2870977,12.9090752 84.7659023,12.4691955 84.1494511,12.0974662 C83.5322256,11.7265113 82.8081278,11.4562331 81.9763835,11.2881805 C81.1438647,11.1193534 80.0371955,11.0357143 78.6540526,11.0357143 C78.0530902,11.0357143 77.2523233,11.0504286 76.2525263,11.0775338 C74.8701579,11.1224511 73.929218,11.1456842 73.4281579,11.1456842 L69.1765038,11.0597218 L69.1765038,12.0037594 C70.0252857,12.1137293 70.5155038,12.184203 70.6487068,12.214406 C70.7803609,12.2461579 70.8771654,12.2933985 70.9406692,12.3561278 C70.9786165,12.3948496 71.009594,12.4498346 71.0343759,12.5203083 C71.1110451,12.8262105 71.1613835,13.5293985 71.185391,14.6321955 C71.2264361,16.625594 71.245797,18.1388421 71.245797,19.1711654 L71.245797,21.0948647 C71.245797,23.4491504 71.2001053,25.1505865 71.112594,26.1976241 C70.8647744,26.3788421 70.5937218,26.5507669 70.3002105,26.7157218 C70.1453233,26.8016842 70.0376767,26.8636391 69.9749474,26.9039098 L69.9749474,27.4692481 L73.5234135,27.3840602 Z M64.4547669,11.1456842 C63.1777218,11.1456842 62.0470451,11.1162556 61.0619624,11.0597218 L61.0619624,12.0889474 C61.9146165,12.1191504 62.4102556,12.1524511 62.5473308,12.1888496 C62.684406,12.2236992 62.7781128,12.2686165 62.8292256,12.3236015 C62.8803383,12.377812 62.9175113,12.4560301 62.9399699,12.5582556 C62.9965038,12.8083985 63.0429699,13.4302707 63.0816917,14.4238722 C63.0979549,14.8699474 63.1064737,15.8712932 63.1064737,17.4279098 L63.1064737,22.333188 C63.1064737,23.1308571 63.0739474,23.999 63.0096692,24.9376165 C62.9709474,25.5796241 62.9391955,25.9474812 62.915188,26.041188 C62.8996992,26.1116617 62.8633008,26.1736165 62.8044436,26.2286015 C62.7455865,26.282812 62.6332932,26.3261805 62.4698872,26.3579323 C62.3444286,26.3811654 61.8751203,26.4090451 61.0619624,26.440797 L61.0619624,27.4692481 C62.0470451,27.4119398 63.1699774,27.3840602 64.429985,27.3840602 C65.877406,27.3840602 67.2396391,27.4119398 68.5159098,27.4692481 L68.5159098,26.440797 C67.7430226,26.4245338 67.2760376,26.3989774 67.1141805,26.3633534 C66.9530977,26.3285038 66.8353835,26.2820376 66.7602632,26.222406 C66.6851429,26.1643233 66.6317068,26.0806842 66.6007293,25.9707143 C66.5217368,25.7283158 66.483015,25.2040226 66.483015,24.3978346 L66.4466165,22.2503233 L66.4466165,17.5216165 C66.4466165,17.3729248 66.4621053,16.3367293 66.4946316,14.4122556 C66.5023759,13.8492406 66.5147669,13.4658947 66.5302556,13.262218 C66.5534887,12.8866165 66.5937594,12.6326015 66.6495188,12.4993985 C66.6719774,12.4211805 66.7153459,12.3569023 66.7796241,12.3057895 C66.8415789,12.2546767 66.9476767,12.2120827 67.0986917,12.1772331 C67.2473835,12.1423835 67.7197895,12.1121805 68.5159098,12.0889474 L68.5159098,11.0597218 C67.2396391,11.1162556 65.8859248,11.1456842 64.4547669,11.1456842 Z M45.7536842,12.2755865 C45.8311278,12.3220526 45.8892105,12.3886541 45.9279323,12.4730677 C46.0053759,12.6697744 46.0518421,13.2560226 46.0673308,14.2333609 L46.1277368,16.7069098 L46.1277368,21.0569173 L46.0309323,24.4814737 C46.0076992,25.0994737 45.9689774,25.5602632 45.9139925,25.865391 C45.8907594,26.028797 45.8574586,26.1387669 45.8148647,26.1937519 C45.7722707,26.2487368 45.7041203,26.2874586 45.6104135,26.3106917 C45.4470075,26.3656767 44.9219398,26.4090451 44.0344361,26.440797 L44.0344361,27.4692481 C45.0729549,27.4119398 46.2013083,27.3840602 47.4187218,27.3840602 C48.7856015,27.3840602 50.136218,27.4119398 51.4728947,27.4692481 L51.4728947,26.440797 C50.7224662,26.4245338 50.2694211,26.4013008 50.112985,26.3695489 C49.9565489,26.3393459 49.8434812,26.2975263 49.7730075,26.247188 C49.7025338,26.1960752 49.6521955,26.1395414 49.6204436,26.076812 C49.5584887,25.943609 49.5151203,25.659391 49.4918872,25.2210602 C49.4756241,25.0026692 49.4516165,24.089609 49.4190902,22.4803308 C49.3950827,21.1684361 49.3826917,19.927015 49.3826917,18.7552932 C49.3826917,18.0133835 49.4074737,16.5373083 49.4554887,14.3270677 C49.4794962,13.3404361 49.5042782,12.7061729 49.5282857,12.4242782 C49.8953684,12.3623233 50.2670977,12.3305714 50.6426992,12.3305714 C51.487609,12.3305714 52.0746316,12.3894286 52.4029925,12.5063684 C52.911797,12.6945564 53.3385113,13.0252406 53.6823609,13.5038421 C54.026985,13.9793459 54.1989098,14.5772105 54.1989098,15.2966617 C54.1989098,16.007594 54.0347293,16.6503759 53.7063684,17.2250075 C53.3780075,17.7988647 52.9737519,18.1976992 52.4966992,18.4207368 C52.0188722,18.643 51.3102632,18.7390301 50.3708722,18.7072782 L50.2423158,19.0944962 C50.4761955,19.2664211 50.718594,19.5243083 50.9695113,19.8673835 C51.469797,20.5465639 52.0792782,21.478985 52.7987293,22.6669699 L55.3079023,26.8001353 C55.456594,27.0742857 55.5495263,27.2965489 55.589797,27.4692481 C56.2070226,27.4359474 56.8281203,27.4196842 57.4538647,27.4196842 C57.9928722,27.4196842 58.8641128,27.4359474 60.0675865,27.4692481 L60.0675865,26.440797 C59.7005038,26.4322782 59.4542331,26.4013008 59.3287744,26.3470902 C59.2033158,26.2928797 59.0747594,26.1960752 58.9415564,26.0566767 C58.8091278,25.9165038 58.4497895,25.4595865 57.8627669,24.6843759 C57.8240451,24.6301654 57.5622857,24.2429474 57.0774887,23.5211729 L55.2591128,20.8121955 C55.2126466,20.7424962 55.1677293,20.6681504 55.1251353,20.5914812 C55.0817669,20.5140376 54.9361729,20.2925489 54.6852556,19.9285639 C54.4351128,19.5645789 54.2120752,19.2075639 54.0169173,18.8598421 C55.238203,18.4060226 56.1427444,17.7918947 56.7305414,17.0174586 C57.3183383,16.2445714 57.6118496,15.3833985 57.6118496,14.4370376 C57.6118496,13.6393684 57.3965564,12.9632857 56.9659699,12.408015 C56.5361579,11.8535188 56.0165113,11.487985 55.4070301,11.3114135 C54.7983233,11.136391 53.8790677,11.0488797 52.6515865,11.0488797 C52.0188722,11.0488797 51.2173308,11.0705639 50.2485113,11.1154812 C49.6622632,11.1511053 48.9583008,11.1689173 48.1381729,11.1689173 C47.1763233,11.1689173 46.4336391,11.1596241 45.9101203,11.1410376 C44.8398496,11.1030902 44.2141053,11.0845038 44.0344361,11.0845038 L44.0344361,12.0401579 C44.9947368,12.1028872 45.5678195,12.1811053 45.7536842,12.2755865 Z M30.409782,15.2834962 C30.7737669,14.2349098 31.3561429,13.4411128 32.1569098,12.905203 C32.9584511,12.3692932 33.929594,12.1005639 35.0711128,12.1005639 C36.0716842,12.1005639 36.8747744,12.269391 37.4803835,12.6062707 C38.0859925,12.9423759 38.6118346,13.4302707 39.0571353,14.068406 C39.5024361,14.7065414 39.8447368,15.480203 40.0832632,16.3886165 C40.3217895,17.2970301 40.4410526,18.2991504 40.4410526,19.3957519 C40.4410526,20.9934135 40.2203383,22.3517744 39.7781353,23.471609 C39.3367068,24.5914436 38.7272256,25.3867895 37.9496917,25.8568722 C37.1713835,26.3261805 36.2900752,26.5608346 35.3057669,26.5608346 C34.2424662,26.5608346 33.3201128,26.3145639 32.5387068,25.8212481 C31.7565263,25.3279323 31.1160677,24.483797 30.615782,23.2896165 C30.1154962,22.0954361 29.8653534,20.5860602 29.8653534,18.7614887 C29.8653534,17.492188 30.0465714,16.3336316 30.409782,15.2834962 Z M27.3368195,24.1035489 C28.0554962,25.3465188 29.046,26.2859098 30.3075564,26.9248195 C31.5691128,27.561406 33.0792632,27.8796992 34.8364586,27.8796992 C36.4612256,27.8796992 37.9063233,27.6179398 39.1725263,27.0936466 C40.0941053,26.7033308 40.9165564,26.144188 41.6391053,25.416218 C42.3616541,24.6905714 42.9099549,23.8572782 43.2855564,22.9194361 C43.792812,21.6609774 44.0468271,20.2964211 44.0468271,18.8265414 C44.0468271,17.9576241 43.9593158,17.1653759 43.7835188,16.4451504 C43.6077218,15.7272481 43.3475113,15.0658797 43.0036617,14.4641429 C42.6605865,13.8616316 42.1579774,13.2738346 41.4981579,12.6984286 C40.8383383,12.1245714 40.0786165,11.6846917 39.2189925,11.3795639 C38.0627594,10.9822782 36.7740977,10.7816992 35.3522331,10.7816992 C33.9226241,10.7816992 32.6022105,10.9892481 31.3917669,11.4043459 C30.4461805,11.7319323 29.5710677,12.2670677 28.7664286,13.0097519 C27.9617895,13.7524361 27.343015,14.6554286 26.9093308,15.7187293 C26.4756466,16.7820301 26.2588045,18.0296466 26.2588045,19.4600301 C26.2588045,21.3132556 26.6181429,22.8605789 27.3368195,24.1035489 Z M17.225782,27.3592782 C17.7330376,27.3592782 18.6313835,27.3755414 19.9200451,27.4088421 C21.6152857,27.4475639 22.5329925,27.4692481 22.6739398,27.4692481 C23.6737368,27.4692481 24.4117744,27.4475639 24.8888271,27.4088421 C25.1149624,27.3840602 25.3418722,27.3391429 25.5680075,27.2756391 C25.5757519,27.1253985 25.6113759,26.6808722 25.6741053,25.9389624 L25.968391,23.5715113 C25.968391,23.5335639 25.9800075,23.4034586 26.004015,23.1850677 L25.0359699,23.1850677 C24.8872782,23.9540827 24.7347143,24.6371353 24.5782782,25.2342256 C24.5078045,25.4696541 24.441203,25.6144737 24.3784737,25.6694586 C24.3157444,25.7244436 24.1244586,25.7755564 23.8038421,25.8235714 C22.9202105,25.9598722 21.884015,26.028797 20.6944812,26.028797 C20.303391,26.028797 19.5684511,26.0001429 18.4888872,25.943609 C18.4811429,25.7089549 18.4749474,25.0429398 18.4710752,23.9455639 C18.467203,22.8474135 18.4610075,21.7399699 18.4532632,20.6224586 C18.4447444,18.5043759 18.4408722,17.3760226 18.4408722,17.2343008 C18.4408722,15.922406 18.4594586,14.8350977 18.4958571,13.9762481 C18.5314812,13.1166241 18.5694286,12.6333759 18.6081504,12.5280526 C18.6476466,12.4227293 18.7096015,12.3460602 18.7955639,12.299594 C18.9907218,12.1981429 19.5305038,12.1276692 20.4133609,12.0889474 L20.4133609,11.0597218 C19.1394135,11.1162556 17.7918947,11.1456842 16.3700301,11.1456842 C15.0960827,11.1456842 13.9638571,11.1162556 12.9710301,11.0597218 L12.9710301,12.0889474 C13.990188,12.1276692 14.5903759,12.2058872 14.7700451,12.3236015 C14.856782,12.3708421 14.9156391,12.4397669 14.9466165,12.5342481 C15.0170902,12.7456692 15.0658797,13.5859323 15.092985,15.0550376 C15.1061504,15.6343158 15.1131203,17.1591805 15.1131203,19.6296316 C15.1131203,21.3117068 15.0968571,22.7513835 15.0651053,23.950985 C15.0325789,25.1521353 14.9969549,25.8491278 14.9582331,26.0450602 C14.9504887,26.0907519 14.9311278,26.1348947 14.8993759,26.1736165 C14.8529098,26.2363459 14.7483609,26.3145639 14.5849549,26.4090451 C14.2194211,26.6274361 13.9359774,26.78 13.7338496,26.865188 L13.7338496,27.4692481 C15.2958872,27.3956767 16.4598647,27.3592782 17.225782,27.3592782 Z M10.699609,16.6867744 L9.67115789,16.6867744 C9.65566917,17.3798947 9.61307519,17.8251955 9.5426015,18.0203534 C9.49613534,18.1682707 9.42256391,18.2581053 9.32111278,18.2890827 C9.05625564,18.3827895 8.4181203,18.4292556 7.40670677,18.4292556 C7.05666165,18.4292556 6.38367669,18.4029248 5.38775188,18.346391 L5.38775188,16.7169774 C5.38775188,14.6910526 5.43189474,13.2885489 5.52095489,12.5117895 C5.73934586,12.4978496 6.15057143,12.4800376 6.75540602,12.4591278 C7.3602406,12.4389925 7.72887218,12.4273759 7.86130075,12.4273759 C8.54822556,12.4273759 9.14686466,12.4715188 9.65799248,12.5613534 C10.1691203,12.6504135 10.4943835,12.741797 10.6353308,12.8347293 C10.681797,12.8579624 10.7166466,12.8966842 10.7406541,12.9516692 C10.7716316,13.020594 10.7948647,13.2258195 10.8111278,13.5673459 C10.8498496,14.2186466 10.8692105,14.6376165 10.8692105,14.8242556 L11.8248647,14.8242556 C11.832609,14.3084812 11.8682331,13.7051955 11.930188,13.0182707 C11.9921429,12.329797 12.0664887,11.7621353 12.1516767,11.317609 L12.0463534,11.1526541 C11.342391,11.0752105 10.5958346,11.0357143 9.80668421,11.0357143 L4.16569173,11.1456842 L0.00309774436,11.0597218 L0.00309774436,12.0401579 C0.758947368,12.0873985 1.22128571,12.1299925 1.39011278,12.1694887 C1.55971429,12.208985 1.66968421,12.2492556 1.72157143,12.2926241 C1.77190977,12.3359925 1.80985714,12.4010451 1.83309023,12.4862331 C1.90433835,12.7363759 1.94693233,13.1630902 1.96319549,13.7648271 C2.03599248,15.8472857 2.07239098,16.9423383 2.07239098,17.0523083 L2.07239098,21.9111203 C2.07239098,22.326218 2.05225564,23.0084962 2.01198496,23.9595038 C1.97093985,24.9105113 1.93918797,25.4758496 1.91595489,25.6555188 C1.87645865,25.968391 1.82069925,26.1720677 1.75022556,26.2657744 C1.70298496,26.3285038 1.64412782,26.3710977 1.57365414,26.3951053 C1.43115789,26.4493158 0.908413534,26.4849398 0.00309774436,26.501203 L0.00309774436,27.4692481 C1.44432331,27.4119398 2.49833083,27.3840602 3.16434586,27.3840602 L7.77146617,27.4692481 L7.77146617,26.5376015 C6.68493233,26.458609 6.07157895,26.3943308 5.93140602,26.3439925 C5.79045865,26.2928797 5.6928797,26.2247293 5.63789474,26.1387669 C5.55967669,26.0140827 5.49849624,25.5780752 5.45435338,24.8322932 C5.40943609,24.0872857 5.38775188,22.7893308 5.38775188,20.939203 L5.38775188,19.6381504 C5.83150376,19.6311805 6.14205263,19.6280827 6.3217218,19.6280827 C7.5662406,19.6280827 8.47697744,19.6784211 9.05238346,19.7798722 C9.2785188,19.8263383 9.41791729,19.9006842 9.47290226,20.0021353 C9.58209774,20.2050376 9.64792481,20.7943835 9.67115789,21.7693985 L10.699609,21.7693985 C10.699609,19.7078496 10.699609,18.0141579 10.699609,16.6867744 Z" id="Fill-3" fill="#FFFFFF" mask="url(#mask-2)"></path>
                </g>
                <path d="M74.081782,77.3584211 C73.8455789,76.8968571 73.6086015,76.4902782 73.3700752,76.1355865 C73.2089925,75.8962857 73.0827594,75.7336541 72.9913759,75.6476917 C72.9007669,75.559406 72.7536241,75.4610526 72.554594,75.3495338 C72.3671805,75.3990977 72.1859624,75.4432406 72.0078421,75.4819624 L70.9677744,75.6879624 L70.9677744,76.0573684 C71.2132707,76.0573684 71.3580902,76.0682105 71.3999098,76.086797 C71.4688346,76.1231955 71.585,76.2300677 71.7491805,76.4058647 C71.9946767,76.674594 72.2610827,77.031609 72.5453008,77.4769098 C72.8961203,78.0236617 73.2260301,78.5789323 73.5334812,79.1411729 C73.6581654,79.3781504 73.7201203,79.533812 73.7201203,79.6089323 L73.7201203,80.5421278 C73.7201203,80.8046617 73.7131504,81.1221805 73.6961128,81.4946842 C73.6860451,81.6580902 73.6690075,81.7564436 73.645,81.7905188 C73.620218,81.8230451 73.5753008,81.8478271 73.511797,81.8640902 C73.4482932,81.8803534 73.2291278,81.8950677 72.8550752,81.9082331 L72.8550752,82.3434662 C73.3592331,82.3194586 73.8571955,82.3070677 74.3489624,82.3070677 C74.8531203,82.3070677 75.4176842,82.3194586 76.0434286,82.3434662 L76.0434286,81.9082331 C75.6794436,81.9012632 75.4610526,81.8880977 75.3936767,81.8687368 C75.3239774,81.8486015 75.2744135,81.8199474 75.2442105,81.7812256 C75.214782,81.7409549 75.1892256,81.6263383 75.1683158,81.4366015 C75.1466316,81.2468647 75.1365639,80.9432857 75.1365639,80.5266391 L75.1365639,79.697218 C75.1365639,79.5268421 75.1443083,79.4044812 75.1605714,79.3293609 C75.1830301,79.2240376 75.2318195,79.1009023 75.3030677,78.9599549 C75.4114887,78.7539549 75.6957068,78.2900677 76.1557218,77.5690677 C76.6157368,76.8465188 77.044,76.22 77.4412857,75.6848647 L77.4412857,75.4641504 L76.6645263,75.4641504 C76.6188346,75.559406 76.5057669,75.7638571 76.3253233,76.0782782 C75.8095489,76.9944361 75.4982256,77.5427368 75.3936767,77.722406 L74.7749023,78.7237519 C74.6959098,78.5549248 74.4651278,78.0995564 74.081782,77.3584211 Z M66.0322932,82.3008722 C66.4683008,82.3008722 67.004985,82.3155865 67.6415714,82.3434662 L67.6415714,81.9384361 C67.246609,81.9252707 67.0111805,81.8981654 66.9368346,81.8571203 C66.8601654,81.8160752 66.8113759,81.7533459 66.7881429,81.6681579 C66.7517444,81.5241128 66.7331579,81.0989474 66.7331579,80.3911128 L66.7331579,77.4467068 C66.7331579,76.6637519 66.7385789,76.2145789 66.7478722,76.0999624 L67.452609,76.0999624 C67.828985,76.0999624 68.1519248,76.1131278 68.4206541,76.1386842 C68.5058421,76.1456541 68.5585038,76.1572707 68.5778647,76.1735338 C68.6010977,76.1967669 68.6220075,76.2656917 68.6429173,76.3849549 C68.6777669,76.6172857 68.6994511,76.8612331 68.7064211,77.1160226 L69.1114511,77.1160226 C69.1207444,76.4252256 69.1284887,76.0666617 69.1315865,76.038782 C69.1370075,75.8893158 69.155594,75.7142932 69.1834737,75.5137143 L69.1346842,75.4641504 C68.9805714,75.4804135 68.828782,75.4912556 68.6777669,75.4974511 C68.3997444,75.5082932 67.8483459,75.5129398 67.0235714,75.5129398 L65.0394662,75.5129398 C64.2379248,75.5129398 63.6958195,75.5082932 63.4154737,75.4974511 C63.2412256,75.4912556 63.0778195,75.4804135 62.9237068,75.4641504 L62.8795639,75.5137143 C62.902797,75.6809925 62.9182857,75.8366541 62.9283534,75.9799248 C62.9314511,76.0666617 62.9391955,76.4445865 62.9523609,77.1160226 L63.3581654,77.1160226 C63.3635865,76.8318045 63.3883684,76.5746917 63.4309624,76.3454586 C63.4487744,76.250203 63.4673609,76.1928947 63.490594,76.1735338 C63.5068571,76.1572707 63.568812,76.1441053 63.6772331,76.134812 C63.9467368,76.1115789 64.259609,76.0999624 64.6135263,76.0999624 L65.3182632,76.0999624 C65.3260075,76.195218 65.3298797,76.6436165 65.3298797,77.4467068 L65.3298797,80.3911128 C65.3298797,81.0989474 65.3112932,81.5225639 65.2756692,81.6635113 C65.2493383,81.7548947 65.1982256,81.8199474 65.126203,81.8594436 C65.0510827,81.8989398 64.8164286,81.9252707 64.423015,81.9384361 L64.423015,82.3434662 C65.0293985,82.3155865 65.5653083,82.3008722 66.0322932,82.3008722 Z M59.2033158,75.5005489 C58.6689549,75.5005489 58.1957744,75.4889323 57.7822256,75.4641504 L57.7822256,75.9001579 C58.1376917,75.9133233 58.3436917,75.9272632 58.401,75.9419774 C58.4575338,75.9566917 58.4970301,75.9752782 58.5179398,75.9985113 C58.5388496,76.0209699 58.5543383,76.0542707 58.564406,76.0968647 C58.5868647,76.2006391 58.607,76.4608496 58.6232632,76.8774962 C58.6310075,77.0641353 58.6348797,77.4838797 58.6348797,78.1359549 L58.6348797,80.188985 C58.6348797,80.5227669 58.6209398,80.885203 58.5930602,81.279391 C58.576797,81.5481203 58.5636316,81.7014586 58.5535639,81.7409549 C58.5481429,81.7703835 58.5318797,81.7967143 58.5070977,81.8199474 C58.4830902,81.8431805 58.4366241,81.8609925 58.3684737,81.8733835 C58.3165865,81.8834511 58.1214286,81.8950677 57.7822256,81.9082331 L57.7822256,82.3434662 C58.1957744,82.3194586 58.6650827,82.3070677 59.1940226,82.3070677 C59.800406,82.3070677 60.3696165,82.3194586 60.9047519,82.3434662 L60.9047519,81.9082331 C60.5810376,81.9012632 60.3843308,81.8911955 60.3161805,81.8764812 C60.2495789,81.8609925 60.1992406,81.8416316 60.1674887,81.8168496 C60.1357368,81.7928421 60.1140526,81.7564436 60.1008872,81.7115263 C60.0675865,81.6100752 60.0513233,81.3909098 60.0513233,81.0532556 L60.0389323,80.1541353 L60.0389323,78.1746767 C60.0389323,78.1127218 60.0459023,77.6790376 60.0606165,76.8728496 C60.0637143,76.6374211 60.0675865,76.4763383 60.0753308,76.3919248 C60.0846241,76.2339398 60.1008872,76.1278421 60.1241203,76.0720827 C60.134188,76.038782 60.1527744,76.0116767 60.1791053,75.9907669 C60.2046617,75.9698571 60.2495789,75.9520451 60.3123083,75.9381053 C60.3742632,75.9226165 60.5717444,75.9102256 60.9047519,75.9001579 L60.9047519,75.4641504 C60.3696165,75.4889323 59.8035038,75.5005489 59.2033158,75.5005489 Z M54.8378195,76.4554286 C54.8579549,76.2509774 54.8912556,76.0418797 54.9361729,75.8296842 L54.8966767,75.7127444 C54.6573759,75.5950301 54.3747068,75.5051955 54.0486692,75.4424662 C53.7218571,75.3805113 53.3857519,75.3495338 53.0380301,75.3495338 C52.7034737,75.3495338 52.3766617,75.3874812 52.0591429,75.4595038 C51.7408496,75.5338496 51.4558571,75.6562105 51.203391,75.8265865 C50.9509248,75.996188 50.7472481,76.2354887 50.5931353,76.5460376 C50.4390226,76.855812 50.3623534,77.195015 50.3623534,77.5605489 C50.3623534,77.8230827 50.4049474,78.0678045 50.4901353,78.2962632 C50.5753233,78.5231729 50.7038797,78.7183308 50.8765789,78.8786391 C51.0485038,79.0389474 51.2754135,79.1613083 51.5573083,79.2464962 C51.7447218,79.3014812 52.1350376,79.3928647 52.7282556,79.5167744 C53.1410301,79.6120301 53.4298947,79.7034135 53.5940752,79.7924737 C53.7574812,79.8807594 53.8782932,79.9984737 53.9557368,80.146391 C54.0331805,80.2943083 54.0711278,80.4708797 54.0711278,80.6784286 C54.0711278,80.9239248 54.0161429,81.1423158 53.9053985,81.3359248 C53.7969774,81.5295338 53.6188571,81.6828722 53.3749098,81.7920677 C53.1294135,81.9012632 52.8529398,81.9562481 52.5416165,81.9562481 C52.1846015,81.9562481 51.8539173,81.8795789 51.5518872,81.7246917 C51.2506316,81.5705789 51.0368872,81.3909098 50.912203,81.1872331 C50.869609,80.8356391 50.851797,80.5413534 50.8579925,80.3043759 L50.4467669,80.3043759 C50.4436692,81.0687444 50.3910075,81.6379549 50.2895564,82.0104586 C50.6667068,82.1947744 51.0121053,82.3256541 51.3265263,82.3992256 C51.6409474,82.4751203 52.0002857,82.5130677 52.4029925,82.5130677 C52.9528421,82.5130677 53.4252481,82.4340752 53.8178872,82.2768647 C54.0649323,82.1792857 54.3026842,82.030594 54.5357895,81.8323383 C54.7681203,81.6340827 54.9501128,81.4156917 55.0809925,81.1756165 C55.2552406,80.8588722 55.3419774,80.491015 55.3419774,80.0704962 C55.3419774,79.8319699 55.3102256,79.6166767 55.2490451,79.4246165 C55.1870902,79.2341053 55.1065489,79.0730226 55.0097444,78.9475639 C54.9137143,78.8221053 54.7828346,78.7105865 54.6194286,78.613782 C54.4560226,78.5169774 54.2415038,78.4333383 53.9758722,78.365188 C53.8744211,78.3427293 53.6544812,78.3016842 53.3160526,78.2428271 C52.9760752,78.1839699 52.7119925,78.134406 52.5222556,78.0949098 C52.2728872,78.0298571 52.0846992,77.9570602 51.9576917,77.8780677 C51.8291353,77.7998496 51.730782,77.6937519 51.6618571,77.559 C51.5937068,77.4250226 51.5573083,77.2492256 51.5542105,77.0331579 C51.5542105,76.7311278 51.6765714,76.4678195 51.9205188,76.2432331 C52.1652406,76.0186466 52.5114135,75.9063534 52.9574887,75.9063534 C53.268812,75.9063534 53.5499323,75.9621128 53.8016241,76.0720827 C54.0525414,76.1843759 54.2275639,76.3121579 54.3305639,76.4569774 C54.3561203,76.614188 54.3731579,76.8813684 54.3793534,77.2616165 L54.7913534,77.2616165 C54.8014211,76.9278346 54.8161353,76.6591053 54.8378195,76.4554286 Z M42.1440376,75.9683083 C42.1757895,75.9876692 42.2005714,76.0155489 42.2168346,76.0519474 C42.2493609,76.134812 42.2687218,76.3795338 42.2756917,76.7892105 L42.2996992,77.8269549 L42.2996992,79.6515263 L42.2571053,81.0865564 C42.2470376,81.3459925 42.2307744,81.5396015 42.2083158,81.6673835 C42.1982481,81.7363083 42.1850827,81.7827744 42.1664962,81.8044586 C42.1486842,81.8276917 42.1200301,81.8447293 42.0813083,81.8532481 C42.0131579,81.8780301 41.793218,81.8950677 41.4222632,81.9082331 L41.4222632,82.3434662 C41.8574962,82.3194586 42.3299023,82.3070677 42.8402556,82.3070677 C43.4133383,82.3070677 43.9794511,82.3194586 44.5401429,82.3434662 L44.5401429,81.9082331 C44.2257218,81.9012632 44.0352105,81.8919699 43.9701579,81.8795789 C43.9043308,81.8656391 43.8570902,81.8486015 43.8268872,81.8269173 C43.7974586,81.8052331 43.7765489,81.7827744 43.7633835,81.7548947 C43.7370526,81.6999098 43.7192406,81.5798722 43.7091729,81.3963308 C43.7029774,81.3041729 43.6936842,80.9208271 43.6812932,80.2447444 C43.6712256,79.6933459 43.6665789,79.1713759 43.6665789,78.6803835 C43.6665789,78.3682857 43.6766466,77.7487368 43.696782,76.8194135 C43.7068496,76.4074135 43.7169173,76.141782 43.7277594,76.0240677 C43.8810977,75.9977368 44.0367594,75.9845714 44.1939699,75.9845714 C44.5471128,75.9845714 44.792609,76.0085789 44.9304586,76.0589173 C45.1434286,76.1371353 45.3215489,76.2773083 45.465594,76.4778872 C45.6096391,76.6776917 45.6816617,76.9293835 45.6816617,77.2314135 C45.6816617,77.5303459 45.6127368,77.8006241 45.4748872,78.0414737 C45.3370376,78.2830977 45.1682105,78.4511504 44.968406,78.5440827 C44.7686015,78.6377895 44.471218,78.6788346 44.0778045,78.6648947 L44.023594,78.8275263 C44.1219474,78.8995489 44.2241729,79.0087444 44.3287218,79.152015 C44.538594,79.4370075 44.7941579,79.8288722 45.096188,80.327609 L46.1486466,82.0631203 C46.2106015,82.1785113 46.2500977,82.2706692 46.2663609,82.3434662 C46.5250226,82.3318496 46.7860075,82.3256541 47.0477669,82.3256541 C47.2739023,82.3256541 47.6394361,82.3318496 48.1443684,82.3434662 L48.1443684,81.9082331 C47.9902556,81.9051353 47.8864812,81.8919699 47.834594,81.8687368 C47.7819323,81.8462782 47.7277218,81.8060075 47.6719624,81.7479248 C47.616203,81.6882932 47.465188,81.4962331 47.2196917,81.1709699 C47.2034286,81.1492857 47.0934586,80.9866541 46.8905564,80.6846241 L46.1277368,79.5477519 C46.1083759,79.5183233 46.0897895,79.4881203 46.071203,79.4548195 C46.053391,79.4230677 45.9922105,79.3309098 45.8868872,79.1775714 C45.7823383,79.0242331 45.6886316,78.8755414 45.6065414,78.7283985 C46.1176692,78.5386617 46.495594,78.2807744 46.7410902,77.9562857 C46.9865865,77.631797 47.1097218,77.2701353 47.1097218,76.8743985 C47.1097218,76.5398421 47.0191128,76.2556241 46.8394436,76.0232932 C46.659,75.790188 46.4413835,75.6368496 46.1858195,75.5632782 C45.9310301,75.4897068 45.5461353,75.4525338 45.0319098,75.4525338 C44.7670526,75.4525338 44.4309474,75.4610526 44.0251429,75.4796391 C43.7796466,75.4928045 43.4845865,75.5005489 43.1415113,75.5005489 C42.7388045,75.5005489 42.4274812,75.4959023 42.2083158,75.4889323 C41.7591429,75.4726692 41.4973835,75.4641504 41.4222632,75.4641504 L41.4222632,75.8699549 C41.8249699,75.8962857 42.0658195,75.928812 42.1440376,75.9683083 Z M35.6798195,82.3008722 C35.9741053,82.3008722 36.5115639,82.3070677 37.2906466,82.3194586 L38.0813459,82.3372707 C38.4677895,82.3372707 38.7659474,82.3256541 38.9758195,82.3008722 L39.0385489,82.2373684 C39.0385489,81.8183985 39.0741729,81.2855865 39.1454211,80.6373835 L38.7396165,80.6373835 C38.6745639,81.0757143 38.612609,81.3730977 38.5537519,81.5295338 C38.534391,81.576 38.5127068,81.6054286 38.4902481,81.6193684 C38.4213233,81.661188 38.237782,81.6937143 37.9396241,81.7161729 C37.6406917,81.739406 37.3154286,81.7510226 36.9630602,81.7510226 C36.6006241,81.7510226 36.2877519,81.7386316 36.0228947,81.7146241 C36.0151504,81.5496692 36.0112782,81.352188 36.0112782,81.1221805 L36.0112782,79.0645038 C36.2188271,79.0404962 36.4829098,79.0281053 36.8027519,79.0281053 C37.1589925,79.0281053 37.4509549,79.0459173 37.6786391,79.0823158 C37.7808647,79.0993534 37.8513383,79.1380752 37.8908346,79.2046767 C37.9434962,79.2929624 37.9682782,79.5252932 37.9651805,79.9055414 L38.3647895,79.9055414 L38.340782,78.8306241 L38.3647895,77.7510602 L37.9651805,77.7510602 C37.958985,78.0430226 37.9357519,78.2505714 37.8970301,78.3752556 C37.8807669,78.4248195 37.8567594,78.4581203 37.825782,78.4782556 C37.7948045,78.4968421 37.6918045,78.5092331 37.5160075,78.5123308 C37.049797,78.5254962 36.7795188,78.5316917 36.7051729,78.5316917 C36.4635489,78.5316917 36.2327669,78.5247218 36.0112782,78.5076842 L36.0112782,77.4939474 C36.0112782,76.9208647 36.0329624,76.4476842 36.0778797,76.0751805 C36.3814586,76.0511729 36.6780677,76.038782 36.9684812,76.038782 C37.2790301,76.038782 37.5957744,76.0573684 37.9187143,76.0929925 C38.1371053,76.1162256 38.267985,76.141782 38.3105789,76.171985 C38.3361353,76.1913459 38.3562707,76.2246466 38.3686617,76.2703383 C38.3918947,76.3586241 38.406609,76.5963759 38.4128045,76.9828195 L38.7946015,76.9828195 C38.8240301,76.559203 38.8402932,76.3237744 38.843391,76.2742105 L38.9378722,75.5648271 L38.9030226,75.5005489 C38.8279023,75.4796391 38.7736917,75.468797 38.7411654,75.468797 C38.3810526,75.4556316 38.1417519,75.4494361 38.0240376,75.4494361 L37.0273383,75.474218 C36.4774887,75.4842857 35.9779774,75.4889323 35.5295789,75.4889323 C35.3235789,75.4889323 35.1075113,75.4897068 34.8813759,75.4897068 L33.7421805,75.5005489 L33.7421805,75.8815714 C34.1270752,75.9017068 34.3632782,75.9311353 34.4523383,75.971406 C34.4848647,75.9868947 34.5096466,76.0116767 34.5266842,76.0434286 C34.5623083,76.1262932 34.5855414,76.3516541 34.595609,76.7210602 C34.6033534,77.2755564 34.6072256,77.5938496 34.6072256,77.6805865 L34.6072256,79.8908271 C34.6072256,80.146391 34.5940602,80.5560677 34.5669549,81.1190827 C34.5537895,81.4273083 34.5367519,81.6495714 34.5166165,81.7866466 C34.3934812,81.885 34.2339474,81.9802556 34.0387895,82.073188 L34.0387895,82.3372707 C35.0540752,82.3132632 35.6008271,82.3008722 35.6798195,82.3008722 Z M28.5681729,82.3798647 C28.767203,81.8199474 29.149,80.8650677 29.7127895,79.5167744 L30.3757068,77.9338271 L30.7249774,77.1183459 C31.0060977,76.443812 31.191188,76.0720827 31.2794737,76.0031579 C31.3321353,75.9636617 31.5172256,75.9295865 31.8347444,75.9001579 L31.8347444,75.4641504 L30.7737669,75.5005489 L29.5253759,75.4641504 L29.5253759,75.9001579 C29.6725188,75.9032556 29.8529624,75.9148722 30.0659323,75.9342331 C30.161188,75.941203 30.2200451,75.9481729 30.2432782,75.959015 C30.2727068,75.9729549 30.2959398,75.9923158 30.3145263,76.0201955 C30.3323383,76.0480752 30.3416316,76.0898947 30.3416316,76.1456541 C30.3416316,76.1851504 30.3377594,76.2246466 30.3315639,76.2633684 C30.2982632,76.3973459 30.2084286,76.6614286 30.0612857,77.0540677 C29.8545113,77.6116617 29.7375714,77.9214361 29.712015,77.9841654 L28.6192857,80.6884962 L27.3755414,77.6542556 C27.3623759,77.6186316 27.3515338,77.5876541 27.3437895,77.5636466 C27.3352707,77.5388647 27.2686692,77.3754586 27.1447594,77.0734286 C26.9279173,76.5506842 26.8202707,76.2385865 26.8202707,76.1402331 C26.8202707,76.0914436 26.8342105,76.0519474 26.8620902,76.0201955 C26.8899699,75.989218 26.9395338,75.965985 27.0115564,75.9481729 C27.1362406,75.9195188 27.3360451,75.9032556 27.6117444,75.9001579 L27.6117444,75.4641504 L25.8468045,75.5005489 C25.6764286,75.5005489 25.1978271,75.4889323 24.411,75.4641504 L24.411,75.9001579 C24.7192256,75.9079023 24.9221278,75.9365564 25.0204812,75.9884436 C25.0863083,76.0248421 25.1823383,76.1673383 25.3085714,76.4182556 C25.4340301,76.6691729 25.7709098,77.4474812 26.3184361,78.7539549 L27.016203,80.4197669 C27.2717669,81.0385414 27.5389474,81.691391 27.8177444,82.3798647 L28.5681729,82.3798647 Z M20.7169398,75.5005489 C20.1825789,75.5005489 19.7086241,75.4889323 19.2958496,75.4641504 L19.2958496,75.9001579 C19.6513158,75.9133233 19.8573158,75.9272632 19.9146241,75.9419774 C19.9711579,75.9566917 20.0106541,75.9752782 20.0315639,75.9985113 C20.0524737,76.0209699 20.0679624,76.0542707 20.0780301,76.0968647 C20.1004887,76.2006391 20.1206241,76.4608496 20.1368872,76.8774962 C20.1446316,77.0641353 20.1485038,77.4838797 20.1485038,78.1359549 L20.1485038,80.188985 C20.1485038,80.5227669 20.1345639,80.885203 20.1066842,81.279391 C20.0904211,81.5481203 20.0772556,81.7014586 20.067188,81.7409549 C20.0609925,81.7703835 20.0455038,81.7967143 20.0207218,81.8199474 C19.9967143,81.8431805 19.9502481,81.8609925 19.8820977,81.8733835 C19.8294361,81.8834511 19.6342782,81.8950677 19.2958496,81.9082331 L19.2958496,82.3434662 C19.7086241,82.3194586 20.1794812,82.3070677 20.7068722,82.3070677 C21.3132556,82.3070677 21.8832406,82.3194586 22.4176015,82.3434662 L22.4176015,81.9082331 C22.0938872,81.9012632 21.8979549,81.8911955 21.8298045,81.8764812 C21.7624286,81.8609925 21.7128647,81.8416316 21.6811128,81.8168496 C21.6501353,81.7928421 21.6276767,81.7564436 21.6145113,81.7115263 C21.5812105,81.6100752 21.5649474,81.3909098 21.5649474,81.0532556 L21.5525564,80.1541353 L21.5525564,78.1746767 C21.5525564,78.1127218 21.5595263,77.6790376 21.5734662,76.8728496 C21.5765639,76.6374211 21.581985,76.4763383 21.5889549,76.3919248 C21.5990226,76.2339398 21.6152857,76.1278421 21.6385188,76.0720827 C21.647812,76.038782 21.6663985,76.0116767 21.6927293,75.9907669 C21.7190602,75.9698571 21.763203,75.9520451 21.8259323,75.9381053 C21.8878872,75.9226165 22.0853684,75.9102256 22.4176015,75.9001579 L22.4176015,75.4641504 C21.8832406,75.4889323 21.3163534,75.5005489 20.7169398,75.5005489 Z M9.38539098,82.3434662 C9.93136842,82.3194586 10.3650526,82.3070677 10.6841203,82.3070677 C10.7700827,82.3070677 11.124,82.3132632 11.7466466,82.3256541 L11.7466466,81.9260451 C11.7009549,81.9291429 11.6684286,81.9314662 11.6490677,81.9314662 C11.5507143,81.9314662 11.3942782,81.9183008 11.1813083,81.8919699 C11.1030902,81.8819023 11.0481053,81.8648647 11.0171278,81.8400827 C10.9861504,81.8160752 10.9636917,81.7835489 10.9505263,81.7448271 C10.9241955,81.6627368 10.9048346,81.4311805 10.8916692,81.0509323 C10.8676617,80.5003083 10.8552707,79.970594 10.8552707,79.4617895 L10.8552707,77.0130226 C12.7975564,79.3835714 14.2976391,81.1601278 15.3562932,82.3434662 C15.6420602,82.3829624 15.9239549,82.4255564 16.2004286,82.4704737 L16.2639323,82.4271053 C16.2197895,81.9608947 16.1981053,80.6381579 16.1981053,78.4581203 C16.1981053,78.1793233 16.2050752,77.747188 16.219015,77.1617143 C16.2329549,76.577015 16.2647068,76.202188 16.3134962,76.0380075 C16.3235639,76.0062556 16.3413759,75.9799248 16.3677068,75.9644361 C16.4436015,75.9148722 16.6813534,75.8854436 17.0809624,75.8761504 L17.0809624,75.4641504 C16.5698346,75.4889323 16.1524135,75.5005489 15.8279248,75.5005489 C15.4933684,75.5005489 15.1262857,75.4889323 14.7266767,75.4641504 L14.7266767,75.8761504 C15.1626842,75.8815714 15.4182481,75.9148722 15.4933684,75.9737293 C15.5398346,76.0101278 15.5692632,76.0891203 15.5824286,76.2107068 C15.6211504,76.5220301 15.6412857,77.559 15.6412857,79.3247143 L15.6412857,80.460812 C15.1859173,79.9922782 14.6128346,79.3433008 13.9212632,78.5131053 C12.9617368,77.3622932 12.1447068,76.3462331 11.4701729,75.4641504 L11.0171278,75.4827368 L10.3046466,75.5005489 C10.1079398,75.5005489 9.80126316,75.4889323 9.38539098,75.4641504 L9.38539098,75.8761504 C9.73156391,75.898609 9.94143609,75.9202932 10.0134586,75.9396541 C10.0854812,75.9597895 10.136594,75.9868947 10.1675714,76.0209699 C10.1985489,76.0558195 10.2225564,76.1084812 10.2388195,76.1812782 C10.2550827,76.2533008 10.2651504,76.4089624 10.2682481,76.6490376 L10.2930301,78.0794211 L10.2930301,79.6584962 C10.2930301,80.0945038 10.2860602,80.4491955 10.2728947,80.7202481 C10.2457895,81.2003985 10.221782,81.5016541 10.2016466,81.6263383 C10.1853835,81.7177218 10.1652481,81.7796767 10.1404662,81.8083308 C10.1156842,81.8377594 10.0854812,81.8594436 10.0490827,81.8718346 C9.99332331,81.8888722 9.77183459,81.9066842 9.38539098,81.9260451 L9.38539098,82.3434662 Z M0.645105263,75.9396541 C0.710932331,75.9876692 0.75275188,76.0302632 0.769015038,76.0666617 C0.798443609,76.1332632 0.818578947,76.2370376 0.828646617,76.3810827 C0.844909774,76.7481654 0.852654135,77.1617143 0.852654135,77.619406 L0.852654135,78.8693459 L0.848007519,79.8133835 C0.848007519,80.3314812 0.85575188,80.6497744 0.872789474,80.7674887 C0.89524812,80.958 0.959526316,81.1554812 1.06407519,81.3607068 C1.1693985,81.5651579 1.32118797,81.7510226 1.52176692,81.915203 C1.72157143,82.0809323 1.97868421,82.2133609 2.2938797,82.3117143 C2.72678947,82.4456917 3.19222556,82.5130677 3.69018797,82.5130677 C4.11690226,82.5130677 4.49172932,82.4673759 4.81621805,82.375218 C5.1414812,82.2838346 5.42105263,82.1475338 5.65725564,81.9670902 C5.89345865,81.7866466 6.07622556,81.5860677 6.20555639,81.3622556 C6.33488722,81.139218 6.42162406,80.8704887 6.46421805,80.5560677 C6.50681203,80.2416466 6.5277218,79.9372932 6.5277218,79.6414586 L6.5277218,78.4867744 C6.5277218,78.1452481 6.53933835,77.6805865 6.56102256,77.0896917 C6.5834812,76.4995714 6.60671429,76.1673383 6.63149624,76.0937669 C6.6562782,76.0201955 6.68803008,75.9698571 6.72752632,75.9435263 C6.80574436,75.8947368 6.99780451,75.8699549 7.30215789,75.8699549 L7.30215789,75.4641504 L6.21097744,75.4959023 C6.1521203,75.499 6.10797744,75.5005489 6.07854887,75.5005489 C5.96703008,75.5005489 5.61466165,75.4889323 5.02144361,75.4641504 L5.02144361,75.8699549 C5.38465414,75.8800226 5.62085714,75.9117744 5.7292782,75.9683083 C5.78116541,75.9946391 5.81911278,76.0349098 5.84234586,76.0860226 C5.87796992,76.1704361 5.90120301,76.4205789 5.91049624,76.8341278 C5.91514286,77.0246391 5.91669173,77.5520301 5.91669173,78.4178496 L5.91669173,79.4215188 C5.91669173,80.1200602 5.85938346,80.5932406 5.74476692,80.8433835 C5.63015038,81.0919774 5.43731579,81.2956541 5.16703759,81.4505414 C4.8967594,81.606203 4.53354887,81.6844211 4.07740602,81.6844211 C3.68089474,81.6844211 3.35408271,81.6263383 3.09696992,81.5093985 C2.83908271,81.3940075 2.64857143,81.2406692 2.52388722,81.0524812 C2.39920301,80.8635188 2.32253383,80.6149248 2.29310526,80.3066992 C2.27993985,80.1657519 2.27296992,79.7955714 2.27296992,79.1961579 L2.26832331,78.6199774 L2.26832331,77.4784586 C2.26832331,76.7861128 2.29078195,76.3392632 2.33492481,76.1355865 C2.35118797,76.0503985 2.38448872,75.9930902 2.43405263,75.9636617 C2.52930827,75.9009323 2.75466917,75.8699549 3.1093609,75.8699549 L3.1093609,75.4641504 L2.92736842,75.4703459 L2.26290226,75.4889323 L1.59921053,75.5005489 L0,75.4641504 L0,75.8699549 L0.645105263,75.9396541 Z" id="Fill-5" fill="#FFFFFF"></path>
                <polyline id="Fill-6" fill="#FFFFFF" points="73.0510075 57.8093308 73.0510075 40.1607068 89.3126165 40.1614812 89.3126165 28.5248045 73.0510075 28.5248045 73.0510075 12.0393835 90.9071805 12.0393835 90.9071805 18.4354511 102.68403 18.4354511 102.68403 0.500285714 55.5270677 0.500285714 55.5270677 12.0393835 59.9429023 12.0393835 59.9429023 57.8093308 55.5425564 57.8093308 55.5425564 69.4452331 77.3088571 69.4452331 77.3088571 57.8093308 73.0510075 57.8093308"></polyline>
                <path d="M50.0169549,43.3893308 L50.0169549,12.0362857 L54.3747068,12.0362857 L54.3747068,0.500285714 L32.5619398,0.500285714 L32.5619398,12.0362857 L36.8151429,12.0362857 L36.8151429,39.4900451 C36.8151429,50.9966165 35.4854361,56.5268647 27.222203,56.5268647 C18.9589699,56.5268647 17.6292632,50.9966165 17.6292632,39.4900451 L17.6292632,12.0362857 L21.8499398,12.0362857 L21.8499398,0.500285714 L0.00464661654,0.500285714 L0.00464661654,12.0362857 L4.33142105,12.0362857 L4.33142105,43.3893308 C4.33142105,50.2361203 4.33142105,55.8461353 7.56081955,60.8869398 C11.1704662,66.592985 17.7237444,70.2204436 27.222203,70.2204436 C44.0336617,70.2204436 50.0169549,61.4576992 50.0169549,43.3893308" id="Fill-7" fill="#FFFFFF"></path>
            </g>
        </g>
    </g>
</svg>
