<?xml version="1.0" encoding="utf-8"?>
<!-- Generator: Adobe Illustrator 18.1.1, SVG Export Plug-In . SVG Version: 6.00 Build 0)  -->
<svg version="1.1" id="Layer_1" xmlns="http://www.w3.org/2000/svg" xmlns:xlink="http://www.w3.org/1999/xlink" x="0px" y="0px"
	 viewBox="0 0 100 119.9" enable-background="new 0 0 100 119.9" xml:space="preserve">
<g>
	<path fill="#4F5B79" d="M94.8,119.9H5.2c-2.9,0-5.2-2.4-5.2-5.2V53.4c0-2.9,2.4-5.2,5.2-5.2h89.5c2.9,0,5.2,2.4,5.2,5.2v61.3
		C100,117.6,97.7,119.9,94.8,119.9z M5.2,50.8c-1.4,0-2.5,1.1-2.5,2.5v61.3c0,1.4,1.1,2.5,2.5,2.5h89.5c1.4,0,2.5-1.1,2.5-2.5V53.4
		c0-1.4-1.1-2.5-2.5-2.5H5.2z"/>
</g>
<g>
	<path fill="#4F5B79" d="M52.5,101.4h-4.3c-1.5,0-2.8-1.2-2.8-2.8V81c-2.2-1.6-3.6-4.1-3.6-6.9c0-4.7,3.8-8.5,8.5-8.5
		s8.5,3.8,8.5,8.5c0,2.7-1.3,5.3-3.6,6.9v17.7C55.3,100.2,54,101.4,52.5,101.4z M50.4,68.3c-3.2,0-5.7,2.6-5.7,5.7
		c0,2,1.1,3.9,2.9,5l0.7,0.4v19.2c0,0,0,0.1,0.1,0.1h4.3c0,0,0.1,0,0.1-0.1V79.5l0.7-0.4c1.8-1,2.9-2.9,2.9-5
		C56.1,70.9,53.5,68.3,50.4,68.3z"/>
</g>
<g>
	<path fill="none" stroke="#4F5B79" stroke-width="5" stroke-miterlimit="10" d="M18.6,50"/>
</g>
<g>
	<path fill="none" stroke="#4F5B79" stroke-width="5" stroke-miterlimit="10" d="M25.6,50"/>
</g>
<g>
	<path fill="#4F5B79" d="M16,100c-0.7,0-1.4-0.6-1.4-1.4V68.9c0-0.7,0.6-1.4,1.4-1.4s1.4,0.6,1.4,1.4v29.7
		C17.3,99.4,16.7,100,16,100z"/>
</g>
<g>
	<path fill="#4F5B79" d="M25.7,100c-0.7,0-1.4-0.6-1.4-1.4V68.9c0-0.7,0.6-1.4,1.4-1.4s1.4,0.6,1.4,1.4v29.7
		C27,99.4,26.4,100,25.7,100z"/>
</g>
<g>
	<path fill="#4F5B79" d="M74.3,100c-0.7,0-1.4-0.6-1.4-1.4V68.9c0-0.7,0.6-1.4,1.4-1.4s1.4,0.6,1.4,1.4v29.7
		C75.7,99.4,75.1,100,74.3,100z"/>
</g>
<g>
	<path fill="#4F5B79" d="M84.1,100c-0.7,0-1.4-0.6-1.4-1.4V68.9c0-0.7,0.6-1.4,1.4-1.4s1.4,0.6,1.4,1.4v29.7
		C85.4,99.4,84.8,100,84.1,100z"/>
</g>
<g>
	<path fill="#4F5B79" d="M75.7,50H73V35.4c0-12.7-10.3-23-23-23s-23,10.3-23,23V50h-2.7V35.4C24.3,21.3,35.9,9.7,50,9.7
		s25.7,11.5,25.7,25.7V50z"/>
</g>
<g>
	<path fill="#4F5B79" d="M85.4,50h-2.7V35.4C82.7,17.4,68,2.7,50,2.7S17.3,17.4,17.3,35.4V50h-2.7V35.4C14.6,15.9,30.5,0,50,0
		s35.4,15.9,35.4,35.4V50z"/>
</g>
</svg>
