<svg xmlns="http://www.w3.org/2000/svg" viewBox="0 0 88 52.2"><path fill="#FFF" d="M64.3 48.8c0-.5-.1-1.3.9-1.3h1.7c1 0 .9.8.9 1.3 0 .6 0 1.4-.7 1.4h-2c-.8 0-.8-.9-.8-1.4m-1.7 0c0 1.1-.1 2.8 1.4 2.8h4c1.5 0 1.4-1.7 1.4-2.8 0-1 .1-2.6-1.7-2.6h-3.3c-1.9 0-1.8 1.6-1.8 2.6zm-8.8-2.2v4.6c0 .1 0 .4.3.4h.9c.3 0 .3-.2.3-.4v-3.3c.6 1.2 1.6 3 1.9 3.7h1.4c.3-.7 1.3-2.5 1.9-3.7v3.3c0 .1 0 .4.3.4h.9c.3 0 .3-.2.3-.4v-4.6c0-.2 0-.4-.3-.4h-1.6c-.3 0-.6-.1-1 .7-.3.6-.9 2-1.3 2.7-.4-.7-1-2-1.3-2.7-.4-.8-.7-.7-.9-.7H54c-.3 0-.2.2-.2.4zm-5.3 1.2c0-.1 0-.2.3-.2h2c.7 0 .7.1.7.6 0 .3 0 .5-1 .5h-2.1v-.9zm-1.6-1.1v4.7c0 .2.2.2.1.2h1.3c.1 0 .2 0 .2-.2v-2.2s.4.8.5 1.1h1.9c.1 0 .5 0 .5.6 0 .2-.1.7.2.7h1.3c.1 0 .2 0 .2-.3 0-.6.1-1.7-.7-1.8.5-.3.7-.4.7-1.5 0-1.7-.9-1.7-1.5-1.7h-4.5c0-.1-.2 0-.2.4zm-5.1 2.6c.1-.1.8-1.5.8-1.6h.1c.1.1.7 1.5.8 1.6l-.1.1-1.6-.1zm-.1-3.1s-2.4 4.5-2.7 5.2v.1h1.7l1-2c.1.2.4 1.1.4 1.1h2.1l.5.9h1.7v-.2c-.3-.7-2-3.8-2.2-4.3-.3-.7-.7-.9-1-.9h-1.5zm-10.9 1.6c0-.1 0-.2.3-.2h2c.7 0 .7.1.7.6 0 .3 0 .5-1 .5h-2.1v-.9zm-1.7-1.1v4.7c0 .2.2.2.1.2h1.3c.1 0 .2 0 .2-.2v-2.2s.4.8.5 1.1h1.9c.1 0 .5 0 .5.6 0 .2-.1.7.2.7h1.3c.1 0 .2 0 .2-.3 0-.6.1-1.7-.7-1.8.5-.3.7-.4.7-1.5 0-1.7-.9-1.7-1.5-1.7h-4.5c0-.1-.2 0-.2.4zm-6.2.6v3c0 1.2.7 1.3 1 1.3h4.3c.3 0 .3-.2.3-.7 0-.4 0-.7-.3-.7h-3.4c-.1 0-.4.1-.4-.3v-1.4l.5 1h3c.3 0 .3-.1.2-.2 0-.1-.5-1-.5-1h-2.9c-.3 0-.3-.1-.3-.5s.3-.3.4-.3H28c.4 0 .3-.2.3-.7 0-.4 0-.7-.3-.7h-4.1c-.9.1-1 .9-1 1.2zm-3.1.3c.5 0 .9 0 .9 1.3 0 .4.1 1.2-.7 1.2h-2.7v-2.5h2.5zm.4-1.4h-4.4v5.4h1.6v-1.1l.5 1.1h2.4c2.3 0 2.1-1.3 2.1-3.4-.1-2-2-2-2.2-2zM7.6 49.4v-2.8c0-.2 0-.4-.3-.4h-1c-.3 0-.3.2-.3.4v2.8c0 .2 0 .7-.7.7H3.6c-.7 0-.7-.5-.7-.7v-2.8c0-.2 0-.4-.3-.4h-1c-.3 0-.3.2-.3.4v2.8c0 .6 0 2.1 1.9 2.1h2.5c1.9 0 1.9-1.5 1.9-2.1zM12 48c-.5-.7-1.2-1.8-1.7-1.8H8.5c-.3 0-.3.2-.3.4v4.6c0 .1 0 .4.3.4h.9c.3 0 .3-.2.3-.4v-3.4c1 1.3 1.9 2.5 2.6 3.5.4.4.5.3.9.3H15v-5c0-.2 0-.4-.3-.4h-1c-.3 0-.3.2-.3.4V50c-.4-.6-1-1.5-1.4-2zm40-28.3c-2.4 1.6-5.6 2.6-9.5 2.6h-.2c-3.9 0-7.2-1-9.5-2.6 2.4-1.6 5.6-2.6 9.5-2.6h.2c3.9 0 7.1 1 9.5 2.6zm9.5 0c6.7-3.1 11-7.8 11.2-13 0 0-1.8-1.4-7.4-3.7-5-1.9-8.8-2.4-8.8-2.4v11.6c0 1.7-.7 3.5-1.9 5.1-3.8-1-7.9-1.5-12.3-1.5s-8.5.5-12.3 1.5c-1.2-1.6-1.9-3.3-1.9-5.1V.6S24.3 1 19.3 3c-5.7 2.2-7.4 3.7-7.4 3.7.2 5.2 4.6 9.9 11.3 13-6.7 3.1-11 7.8-11.2 13 0 0 1.8 1.4 7.4 3.7 5 1.9 8.8 2.4 8.8 2.4V27.2c0-1.7.7-3.5 1.9-5.1 3.8 1 7.9 1.5 12.3 1.5s8.5-.5 12.3-1.5c1.2 1.6 1.9 3.3 1.9 5.1v11.6s3.8-.4 8.8-2.4c5.7-2.2 7.4-3.7 7.4-3.7-.3-5.2-4.7-9.9-11.3-13zm14.8 29.7v-2.8c0-.2 0-.4-.3-.4h-1c-.3 0-.3.2-.3.4v2.8c0 .2 0 .7-.7.7h-1.7c-.7 0-.7-.5-.7-.7v-2.8c0-.2 0-.4-.3-.4h-1c-.3 0-.3.2-.3.4v2.8c0 .6 0 2.1 1.9 2.1h2.5c1.8 0 1.9-1.5 1.9-2.1zm5.3-1.2c0 .3 0 .5-1 .5h-2.1v-1c0-.1 0-.2.3-.2h2c.8.1.8.2.8.7zm1.7-.3c0-1.7-.9-1.7-1.5-1.7h-4.5c-.2 0-.4.1-.4.5v4.7c0 .2.2.2.1.2h1.3c.1 0 .2 0 .2-.2v-2.2s.4.8.5 1.1h1.9c.1 0 .5 0 .5.6 0 .2-.1.7.2.7h1.3c.1 0 .2 0 .2-.3 0-.6.1-1.7-.7-1.8.7-.4.9-.5.9-1.6zm1.6 2.4c0 .1 0 .1-.2.1h-.3v-.2h.3c.2 0 .2 0 .2.1zm.2 0c0-.2-.1-.3-.3-.3h-.4c-.1 0-.1 0-.1.2v.8l.1.1s.1 0 .1-.1v-.4h.1c.1.1.2.3.3.5 0 0 .2 0 .2-.1-.1-.1-.1-.2-.2-.3.1 0 .2-.2.2-.4zm.3.2c0 .4-.3.8-.7.8-.4 0-.7-.3-.7-.8 0-.4.3-.7.7-.7.4 0 .7.3.7.7zm.2 0c0-.5-.4-1-.9-1s-.9.4-.9 1c0 .5.4 1 .9 1 .5.1.9-.4.9-1z"/></svg>
