<svg xmlns="http://www.w3.org/2000/svg" viewBox="0 0 164.3 49"><g fill-rule="evenodd" clip-rule="evenodd"><path fill="#FFD800" d="M.6.5h33.5v48H.6V.5zm4.8 43.2h23.8V5.3H5.4v38.4z"/><path d="M56.3 22h-2.1c-2.7-3.8-5.4-7.7-8.1-12v12h-2.3V5.3h2.1c2.7 3.8 5.4 7.6 8.1 11.9V5.3h2.3V22zM61.8 15.4c.7-2.2 1.3-4.2 1.9-6.8.7 2.6 1.3 4.6 1.9 6.8h-3.8zm1.1-10.1L57.1 22h2.5l1.5-4.6h5l1.3 4.6h3.2L65.3 5.3h-2.4zM73.3 22V7.6h-4.4V5.3h11.6v2.3h-4.3V22h-2.9zM81.5 5.3h2.8V22h-2.8V5.3zM93.2 19.9c-3 0-4-3.3-4-6.5 0-3.1 1.2-6 4-6s4 2.9 4 6c0 3.2-1.1 6.5-4 6.5zm0 2.4c4.4 0 7.1-3.9 7.1-8.9 0-4.7-3-8.4-7.1-8.4s-7.1 3.7-7.1 8.4c0 5 2.7 8.9 7.1 8.9zM114.5 22h-2.1c-2.7-3.8-5.4-7.7-8.1-12v12H102V5.3h2.1c2.7 3.8 5.4 7.6 8.1 11.9h.1V5.3h2.3V22h-.1zM119.9 15.4c.7-2.2 1.3-4.2 1.9-6.8.7 2.6 1.3 4.6 1.9 6.8h-3.8zM121 5.3L115.3 22h2.5l1.5-4.6h5l1.3 4.6h3.2l-5.3-16.7H121zM129.6 5.3h2.8v14.5h5.7V22h-8.5V5.3zM54.6 36v6.9c-1.5.6-3.1 1-4.7 1-4.9 0-8-3.8-8-8.7 0-4.6 3.1-8.5 8.1-8.5 1.5 0 3.1.6 4.1 1.3l-.9 2c-.8-.5-2-.9-3.1-.9-3.1 0-5.1 2.4-5.1 6.2 0 4 2.4 6.3 4.8 6.3.8 0 1.4-.1 2-.4V36h2.8zM64.8 29.2h-4.7v4.6h4.6V36h-4.6v5.4h5.6v2.2h-8.5V26.9h7.6v2.3zM73.7 41.5c-3 0-4-3.3-4-6.5 0-3.1 1.2-6 4-6s4 2.9 4 6c0 3.2-1.1 6.5-4 6.5zm0 2.4c4.4 0 7.1-3.9 7.1-8.9 0-4.7-3-8.4-7.1-8.4s-7.1 3.7-7.1 8.4c0 5 2.7 8.9 7.1 8.9zM94.5 36v6.9c-1.5.6-3.1 1-4.7 1-4.9 0-8-3.8-8-8.7 0-4.6 3.1-8.5 8.1-8.5 1.6 0 3.1.6 4.1 1.3l-.9 2c-.8-.5-1.9-.9-3-.9-3.1 0-5.1 2.4-5.1 6.2 0 4 2.4 6.3 4.8 6.3.8 0 1.4-.1 2-.4V36h2.7zM100 29.2h1.3c1.7 0 2.6 1 2.6 2.7 0 2.2-1.4 3.2-2.7 3.3-.3 0-1 .1-1.2.1v-6.1zm7.2 14.4l-3.4-6.9c1.8-1 2.9-3 2.9-5 0-3.2-2-4.8-5.2-4.8H97v16.7h2.9v-6.3h1.3l2.7 6.3h3.3zM112 37c.7-2.2 1.3-4.2 1.9-6.8.7 2.6 1.3 4.6 1.9 6.8H112zm1.1-10.1l-5.8 16.7h2.5l1.5-4.6h5l1.3 4.6h3.2l-5.3-16.7h-2.4zM126.1 26.9h-4.5v16.7h2.9v-6.3h1.3c3.4 0 5.5-2.8 5.5-5.6 0-3.2-2-4.8-5.2-4.8zm-.4 8.3c-.3 0-1 0-1.2.1v-6.1h1.3c1.7 0 2.6 1 2.6 2.7.1 2.2-1.3 3.2-2.7 3.3zM144.6 43.6h-2.9v-8h-5.9v8h-2.9V26.9h2.9v6.4h5.9V27h2.9v16.6zM147.3 26.9h2.9v16.7h-2.9V26.9zM163.1 30c-.7-.4-1.8-.9-2.9-.9-2.9 0-5 2.4-5 6.2 0 4 2.3 6.3 5.1 6.3 1.1 0 2.1-.4 2.9-.8l.8 2.1c-.9.6-2.4 1.1-3.8 1.1-4.9 0-8-3.8-8-8.7 0-4.6 3.1-8.5 8.1-8.5 1.5 0 2.9.6 3.8 1.3l-1 1.9z"/></g></svg>
