<?xml version="1.0" encoding="utf-8"?>
<!-- Generator: Adobe Illustrator 18.1.1, SVG Export Plug-In . SVG Version: 6.00 Build 0)  -->
<svg version="1.1" id="Layer_1" xmlns="http://www.w3.org/2000/svg" xmlns:xlink="http://www.w3.org/1999/xlink" x="0px" y="0px"
	 viewBox="0 0 100 119.9" enable-background="new 0 0 100 119.9" xml:space="preserve">
<g>
	<g>
		<path fill="#4F5B79" d="M85.4,75.6h-6.2c-1.5,0-2.7-1.2-2.7-2.7V46.5c0-1.5,1.2-2.7,2.7-2.7h6.2V75.6z M79.2,46.5l0,26.5l3.5,0
			V46.5H79.2z"/>
	</g>
	<g>
		<path fill="#4F5B79" d="M84,75.6v-2.7c7.3,0,13.2-5.9,13.2-13.2S91.3,46.5,84,46.5v-2.7c8.8,0,15.9,7.2,15.9,15.9
			S92.8,75.6,84,75.6z"/>
	</g>
	<g>
		<path fill="#4F5B79" d="M20.8,75.6h-6.2V43.8h6.2c1.5,0,2.7,1.2,2.7,2.7v26.5C23.5,74.4,22.3,75.6,20.8,75.6z M17.3,72.9h3.5
			l0-26.5l-3.5,0V72.9z"/>
	</g>
	<g>
		<path fill="#4F5B79" d="M15.9,75.6C7.2,75.6,0,68.5,0,59.7s7.2-15.9,15.9-15.9v2.7c-7.3,0-13.2,5.9-13.2,13.2s5.9,13.2,13.2,13.2
			V75.6z"/>
	</g>
	<g>
		<path fill="#4F5B79" d="M85.4,45.1h-2.7v-9.7C82.7,17.4,68,2.7,50,2.7S17.3,17.4,17.3,35.4v9.7h-2.7v-9.7C14.6,15.9,30.5,0,50,0
			s35.4,15.9,35.4,35.4V45.1z"/>
	</g>
	<g>
		<g>
			<path fill="#4F5B79" d="M59.4,112.2c1.4,0,2.5,1.1,2.5,2.5s-1.1,2.5-2.5,2.5H45.5c-1.4,0-2.5-1.1-2.5-2.5s1.1-2.5,2.5-2.5H59.4
				 M59.4,109.5H45.5c-2.9,0-5.2,2.3-5.2,5.2v0c0,2.9,2.3,5.2,5.2,5.2h13.9c2.9,0,5.2-2.3,5.2-5.2v0
				C64.6,111.9,62.2,109.5,59.4,109.5L59.4,109.5z"/>
		</g>
	</g>
	<path fill="#4F5B79" d="M82.7,75.4v9.4c0,7.2-2.7,14.1-7.6,19.5c-3.6,3.9-8,6.7-13,8.2v2.8c5.7-1.6,10.9-4.8,15-9.2
		c5.3-5.9,8.3-13.4,8.3-21.3v-9.4H82.7z"/>
</g>
</svg>
