<?xml version="1.0" encoding="utf-8"?>
<!-- Generator: Adobe Illustrator 18.1.1, SVG Export Plug-In . SVG Version: 6.00 Build 0)  -->
<svg version="1.1" id="Layer_1" xmlns="http://www.w3.org/2000/svg" xmlns:xlink="http://www.w3.org/1999/xlink" x="0px" y="0px"
	 viewBox="0 0 100 119.9" enable-background="new 0 0 100 119.9" xml:space="preserve">
<g>
	<path fill="#4F5B79" d="M96,37.4c0.7,0,1.2,0.6,1.2,1.2v21.8c0,0.7-0.6,1.2-1.2,1.2H4c-0.7,0-1.2-0.6-1.2-1.2V38.6
		c0-0.7,0.6-1.2,1.2-1.2H96 M96,34.7H4c-2.2,0-4,1.8-4,4v21.8c0,2.2,1.8,4,4,4H96c2.2,0,4-1.8,4-4V38.6C100,36.4,98.2,34.7,96,34.7
		L96,34.7z"/>
</g>
<g>
	<path fill="#4F5B79" d="M69.3,55.8H9.9c-1.9,0-3.4-1.5-3.4-3.4v-5.9c0-1.9,1.5-3.4,3.4-3.4h59.4c1.9,0,3.4,1.5,3.4,3.4v5.9
		C72.7,54.3,71.2,55.8,69.3,55.8z M9.9,45.9c-0.3,0-0.6,0.3-0.6,0.6v5.9c0,0.3,0.3,0.6,0.6,0.6h59.4c0.3,0,0.6-0.3,0.6-0.6v-5.9
		c0-0.3-0.3-0.6-0.6-0.6H9.9z"/>
</g>
<g>
	<path fill="#4F5B79" d="M85.1,55.8c-3.5,0-6.3-2.8-6.3-6.3s2.8-6.3,6.3-6.3s6.3,2.8,6.3,6.3S88.6,55.8,85.1,55.8z M85.1,45.9
		c-2,0-3.6,1.6-3.6,3.6s1.6,3.6,3.6,3.6s3.6-1.6,3.6-3.6S87.1,45.9,85.1,45.9z"/>
</g>
<g>
	<path fill="#4F5B79" d="M96,72.1c0.7,0,1.2,0.6,1.2,1.2v21.8c0,0.7-0.6,1.2-1.2,1.2H4c-0.7,0-1.2-0.6-1.2-1.2V73.3
		c0-0.7,0.6-1.2,1.2-1.2H96 M96,69.3H4c-2.2,0-4,1.8-4,4v21.8c0,2.2,1.8,4,4,4H96c2.2,0,4-1.8,4-4V73.3C100,71.1,98.2,69.3,96,69.3
		L96,69.3z"/>
</g>
<g>
	<path fill="#4F5B79" d="M69.3,90.5H9.9c-1.9,0-3.4-1.5-3.4-3.4v-5.9c0-1.9,1.5-3.4,3.4-3.4h59.4c1.9,0,3.4,1.5,3.4,3.4v5.9
		C72.7,89,71.2,90.5,69.3,90.5z M9.9,80.6c-0.3,0-0.6,0.3-0.6,0.6v5.9c0,0.3,0.3,0.6,0.6,0.6h59.4c0.3,0,0.6-0.3,0.6-0.6v-5.9
		c0-0.3-0.3-0.6-0.6-0.6H9.9z"/>
</g>
<g>
	<path fill="#4F5B79" d="M85.1,90.5c-3.5,0-6.3-2.8-6.3-6.3s2.8-6.3,6.3-6.3s6.3,2.8,6.3,6.3S88.6,90.5,85.1,90.5z M85.1,80.6
		c-2,0-3.6,1.6-3.6,3.6s1.6,3.6,3.6,3.6s3.6-1.6,3.6-3.6S87.1,80.6,85.1,80.6z"/>
</g>
<g>
	<path fill="#4F5B79" d="M96,2.8c0.7,0,1.2,0.6,1.2,1.2v21.8c0,0.7-0.6,1.2-1.2,1.2H4c-0.7,0-1.2-0.6-1.2-1.2V4
		c0-0.7,0.6-1.2,1.2-1.2H96 M96,0H4C1.8,0,0,1.8,0,4v21.8c0,2.2,1.8,4,4,4H96c2.2,0,4-1.8,4-4V4C100,1.8,98.2,0,96,0L96,0z"/>
</g>
<g>
	<path fill="#4F5B79" d="M69.3,21.2H9.9c-1.9,0-3.4-1.5-3.4-3.4v-5.9c0-1.9,1.5-3.4,3.4-3.4h59.4c1.9,0,3.4,1.5,3.4,3.4v5.9
		C72.7,19.7,71.2,21.2,69.3,21.2z M9.9,11.3c-0.3,0-0.6,0.3-0.6,0.6v5.9c0,0.3,0.3,0.6,0.6,0.6h59.4c0.3,0,0.6-0.3,0.6-0.6v-5.9
		c0-0.3-0.3-0.6-0.6-0.6H9.9z"/>
</g>
<g>
	<path fill="#4F5B79" d="M85.1,21.2c-3.5,0-6.3-2.8-6.3-6.3s2.8-6.3,6.3-6.3s6.3,2.8,6.3,6.3S88.6,21.2,85.1,21.2z M85.1,11.3
		c-2,0-3.6,1.6-3.6,3.6s1.6,3.6,3.6,3.6s3.6-1.6,3.6-3.6S87.1,11.3,85.1,11.3z"/>
</g>
<g>
	<path fill="#4F5B79" d="M14.9,119.9c-0.8,0-1.4-0.6-1.4-1.4v-14.9c0-0.8,0.6-1.4,1.4-1.4s1.4,0.6,1.4,1.4v14.9
		C16.2,119.3,15.6,119.9,14.9,119.9z"/>
</g>
<g>
	<path fill="#4F5B79" d="M84.2,119.9H14.9c-0.8,0-1.4-0.6-1.4-1.4s0.6-1.4,1.4-1.4h69.3c0.8,0,1.4,0.6,1.4,1.4
		S84.9,119.9,84.2,119.9z"/>
</g>
<g>
	<path fill="#4F5B79" d="M84.2,110H14.9c-0.8,0-1.4-0.6-1.4-1.4c0-0.8,0.6-1.4,1.4-1.4h69.3c0.8,0,1.4,0.6,1.4,1.4
		C85.6,109.4,84.9,110,84.2,110z"/>
</g>
<g>
	<path fill="#4F5B79" d="M84.2,119.9c-0.8,0-1.4-0.6-1.4-1.4v-14.9c0-0.8,0.6-1.4,1.4-1.4c0.8,0,1.4,0.6,1.4,1.4v14.9
		C85.6,119.3,84.9,119.9,84.2,119.9z"/>
</g>
</svg>
